<svg width="278" height="65" viewBox="0 0 278 65" fill="none" xmlns="http://www.w3.org/2000/svg">
<path d="M88.352 15.85C88.352 15.3127 88.4387 14.7927 88.612 14.29C88.8027 13.7873 89.054 13.328 89.366 12.912C89.6953 12.4787 90.0853 12.106 90.536 11.794C90.9867 11.482 91.4807 11.2653 92.018 11.144L95.346 10.364V8.466H98.57V18.008C98.57 18.32 98.7 18.5973 98.96 18.84C99.22 19.0827 99.5233 19.204 99.87 19.204H100.65C100.893 19.204 101.014 19.3253 101.014 19.568V22.636C101.014 22.74 100.971 22.8267 100.884 22.896C100.815 22.9653 100.737 23 100.65 23H99.87C98.9687 23 98.1973 22.7833 97.556 22.35C96.932 21.8993 96.412 21.31 95.996 20.582C95.7707 20.738 95.476 20.8593 95.112 20.946C94.7653 21.0153 94.4447 21.05 94.15 21.05H91.914C91.446 21.05 90.9953 20.9547 90.562 20.764C90.1287 20.5733 89.7473 20.322 89.418 20.01C89.0887 19.6807 88.8287 19.2993 88.638 18.866C88.4473 18.4327 88.352 17.982 88.352 17.514V15.85ZM95.346 13.822L92.902 14.394C92.5033 14.498 92.1827 14.706 91.94 15.018C91.6973 15.33 91.576 15.694 91.576 16.11V17.254H95.346V13.822ZM104.456 19.204C104.751 19.204 104.993 19.1087 105.184 18.918C105.392 18.71 105.496 18.4587 105.496 18.164V12.548H108.72V18.138C108.72 18.814 108.59 19.4467 108.33 20.036C108.087 20.6253 107.741 21.1453 107.29 21.596C106.857 22.0293 106.345 22.376 105.756 22.636C105.167 22.8787 104.534 23 103.858 23H100.66C100.556 23 100.469 22.9653 100.4 22.896C100.331 22.8093 100.296 22.7227 100.296 22.636V19.594C100.296 19.49 100.331 19.4033 100.4 19.334C100.469 19.2473 100.556 19.204 100.66 19.204H104.456ZM105.444 10.416H108.694V7.166H105.444V10.416ZM115.209 23C114.533 23 113.909 22.8613 113.337 22.584C112.782 22.2893 112.305 21.908 111.907 21.44C111.525 20.972 111.248 20.4347 111.075 19.828C110.919 19.204 110.901 18.5713 111.023 17.93L111.465 15.538C111.551 15.0353 111.725 14.576 111.985 14.16C112.245 13.744 112.557 13.38 112.921 13.068C113.302 12.756 113.727 12.5133 114.195 12.34C114.663 12.1667 115.148 12.08 115.651 12.08H117.107C117.731 12.08 118.311 12.2013 118.849 12.444C119.386 12.6693 119.854 12.99 120.253 13.406C120.669 13.8047 120.989 14.2813 121.215 14.836C121.457 15.3733 121.579 15.954 121.579 16.578V19.204H123.321C123.563 19.204 123.685 19.3253 123.685 19.568V22.636C123.685 22.8787 123.563 23 123.321 23H121.553C121.553 23.0693 121.544 23.1473 121.527 23.234C121.475 23.8407 121.327 24.4127 121.085 24.95C120.859 25.4873 120.547 25.9813 120.149 26.432C119.767 26.9 119.317 27.3073 118.797 27.654C118.294 28.0007 117.739 28.278 117.133 28.486L113.337 29.786L112.375 26.744L116.223 25.444C116.829 25.236 117.332 24.9067 117.731 24.456C118.129 24.0053 118.329 23.4507 118.329 22.792V22.636C118.103 22.74 117.835 22.8267 117.523 22.896C117.228 22.9653 116.933 23 116.639 23H115.209ZM114.767 19.204H118.355V16.552C118.355 16.344 118.277 16.162 118.121 16.006C117.982 15.85 117.8 15.7633 117.575 15.746H115.339C114.957 15.746 114.706 15.9627 114.585 16.396L114.169 18.502C114.134 18.6753 114.177 18.84 114.299 18.996C114.42 19.1347 114.576 19.204 114.767 19.204ZM127.261 5.97H130.511V9.22H127.261V5.97ZM123.309 23C123.066 23 122.945 22.8787 122.945 22.636V19.594C122.945 19.5073 122.988 19.4207 123.075 19.334C123.144 19.2473 123.222 19.204 123.309 19.204H128.223C128.933 19.204 129.627 19.0913 130.303 18.866C130.996 18.6407 131.577 18.268 132.045 17.748L133.293 16.292C133.327 16.24 133.362 16.1967 133.397 16.162C133.431 16.1273 133.466 16.0927 133.501 16.058C133.535 16.0407 133.561 16.0147 133.579 15.98L128.327 14.42C128.032 14.3333 127.841 14.4287 127.755 14.706L126.767 17.41L123.959 16.656L124.687 14.186C124.843 13.614 125.103 13.1287 125.467 12.73C125.831 12.314 126.238 11.9933 126.689 11.768C127.157 11.5427 127.642 11.4127 128.145 11.378C128.647 11.326 129.133 11.3693 129.601 11.508L140.027 14.628L139.117 17.618L137.609 17.176C137.314 17.1067 137.071 17.0893 136.881 17.124C136.707 17.1413 136.551 17.1933 136.413 17.28V18.164C136.413 18.4587 136.508 18.71 136.699 18.918C136.907 19.1087 137.158 19.204 137.453 19.204H141.119C141.361 19.204 141.483 19.3253 141.483 19.568V22.636C141.483 22.8787 141.361 23 141.119 23H138.285C137.245 23 136.361 22.714 135.633 22.142C134.905 21.57 134.367 20.8247 134.021 19.906L133.241 20.764C132.478 21.544 131.585 22.116 130.563 22.48C129.54 22.8267 128.483 23 127.391 23H123.309ZM148.023 23C147.417 23 146.836 22.8873 146.281 22.662C145.744 22.4193 145.259 22.038 144.825 21.518C144.375 22.038 143.881 22.4193 143.343 22.662C142.806 22.8873 142.234 23 141.627 23H141.107C141.021 23 140.943 22.9653 140.873 22.896C140.787 22.8093 140.743 22.7227 140.743 22.636V19.594C140.743 19.49 140.787 19.4033 140.873 19.334C140.943 19.2473 141.021 19.204 141.107 19.204H142.147C142.442 19.1867 142.685 19.0827 142.875 18.892C143.083 18.684 143.187 18.4327 143.187 18.138V13.276H146.411V18.138C146.411 18.4327 146.515 18.684 146.723 18.892C146.949 19.1 147.183 19.204 147.425 19.204H148.309C148.604 19.204 148.855 19.1087 149.063 18.918C149.289 18.7273 149.427 18.4847 149.479 18.19L150.441 13.302L153.665 13.874L152.833 17.982C152.764 18.3113 152.833 18.5973 153.041 18.84C153.249 19.0827 153.509 19.204 153.821 19.204H154.835C155.13 19.204 155.373 19.1087 155.563 18.918C155.771 18.71 155.875 18.4587 155.875 18.164V12.6H159.099V18.112C159.099 18.4413 159.195 18.71 159.385 18.918C159.593 19.1087 159.845 19.204 160.139 19.204H161.153C161.396 19.204 161.517 19.3253 161.517 19.568V22.61C161.517 22.714 161.483 22.8093 161.413 22.896C161.361 22.9653 161.275 23 161.153 23H160.659C160.035 23 159.455 22.8873 158.917 22.662C158.38 22.4193 157.895 22.038 157.461 21.518C157.028 22.038 156.525 22.4193 155.953 22.662C155.399 22.8873 154.809 23 154.185 23C153.631 23 153.059 22.896 152.469 22.688C151.88 22.4627 151.395 22.0727 151.013 21.518C150.597 22.0727 150.129 22.4627 149.609 22.688C149.107 22.896 148.578 23 148.023 23ZM181.576 18.164C181.576 18.4587 181.68 18.71 181.888 18.918C182.096 19.1087 182.347 19.204 182.642 19.204H184.462C184.549 19.204 184.627 19.2387 184.696 19.308C184.783 19.3773 184.826 19.464 184.826 19.568V22.636C184.826 22.8787 184.705 23 184.462 23H183.188C182.581 23 182.009 22.896 181.472 22.688C180.952 22.48 180.484 22.2027 180.068 21.856C179.635 22.2027 179.149 22.48 178.612 22.688C178.092 22.896 177.555 23 177 23H161.166C160.923 23 160.802 22.8787 160.802 22.636V19.568C160.802 19.4813 160.837 19.4033 160.906 19.334C160.975 19.2473 161.062 19.204 161.166 19.204H177.572C177.763 19.204 177.945 19.126 178.118 18.97C178.291 18.814 178.378 18.6147 178.378 18.372V16.526C178.378 16.266 178.283 16.0493 178.092 15.876C177.901 15.6853 177.685 15.59 177.442 15.59H164.364L162.05 13.38L169.954 4.124L172.268 6.256L167.328 12.08H177.104C177.728 12.08 178.309 12.2013 178.846 12.444C179.383 12.6693 179.851 12.99 180.25 13.406C180.666 13.8047 180.987 14.2813 181.212 14.836C181.455 15.3733 181.576 15.954 181.576 16.578V18.164ZM196.201 21.986L191.547 22.584C190.524 22.7227 189.501 22.8267 188.479 22.896C187.473 22.9653 186.477 23 185.489 23H184.475C184.267 23 184.145 22.8787 184.111 22.636V19.594C184.111 19.49 184.145 19.4033 184.215 19.334C184.284 19.2473 184.379 19.204 184.501 19.204H186.685C186.511 18.9787 186.399 18.71 186.347 18.398L185.879 15.85C185.757 15.1913 185.783 14.5673 185.957 13.978C186.147 13.3713 186.442 12.8427 186.841 12.392C187.239 11.9413 187.716 11.586 188.271 11.326C188.843 11.0487 189.458 10.91 190.117 10.91H194.927V14.576H189.987C189.692 14.576 189.458 14.6887 189.285 14.914C189.129 15.122 189.077 15.3647 189.129 15.642L189.831 19.1L195.655 18.476L196.201 21.986Z" fill="black"/>
<path fill-rule="evenodd" clip-rule="evenodd" d="M241.543 0.0735947C236.294 0.620536 231.763 2.1863 227.284 5.00122C226.189 5.68902 225.957 5.94215 226.575 5.77477C227.304 5.57739 232.906 5.67408 234.517 5.91189C237.703 6.38222 240.134 7.00307 242.669 7.99446C247.377 9.83524 250.993 12.2076 254.62 15.835C258.032 19.2463 260.305 22.5985 262.266 27.11L262.574 27.8181L262.689 26.595C262.922 24.116 262.616 19.9165 261.999 17.1317C260.843 11.9113 258.214 6.499 255.023 2.77573C253.762 1.30357 253.867 1.37374 252.317 0.968555C249.97 0.354662 247.806 0.068187 245.084 0.0110208C243.738 -0.0173048 242.145 0.0108921 241.543 0.0735947ZM257.78 2.88607C261.451 7.92249 263.523 12.8768 264.548 19.063C264.737 20.2031 264.782 21.1822 264.778 24.0843C264.772 28.0316 264.623 29.3504 263.82 32.5215C262.799 36.5599 260.716 41.0686 258.395 44.2644C258.049 44.7413 257.766 45.1622 257.766 45.1996C257.766 45.3041 259.186 44.5641 260.622 43.7113C267.606 39.5645 272.89 32.9362 275.457 25.1024L275.799 24.0604L275.347 22.5689C272.897 14.4853 267.453 7.83777 259.955 3.77189C259.353 3.4455 258.577 3.05744 258.231 2.90963C257.633 2.65431 257.611 2.65316 257.78 2.88607ZM227.766 8.26987C224.944 8.47201 222.247 8.95303 221.743 9.34405C221.551 9.49353 220.91 10.1482 220.319 10.7987C215.38 16.2345 212.559 22.8618 212.06 30.2001C211.939 31.9838 212.013 35.2219 212.175 35.2209C212.217 35.2206 212.67 34.3898 213.182 33.3746C214.862 30.0418 217.051 27.0085 219.654 24.4053C224.936 19.124 231.273 15.8971 238.904 14.6039C240.309 14.3657 241.103 14.3185 243.86 14.3097C245.666 14.3039 247.607 14.3435 248.174 14.3979L249.204 14.4966L248.882 14.2385C247.58 13.1939 243.734 11.1839 241.368 10.3107C237.114 8.7411 231.968 7.96897 227.766 8.26987ZM229.826 20.1056C226.779 21.7006 223.886 23.8965 221.309 26.5703C217.772 30.2392 215.107 34.6879 213.481 39.6339L213.195 40.5057L213.594 41.8611C215.828 49.4339 220.885 55.9838 227.636 60.0487C229.083 60.92 231.092 61.9381 231.184 61.8466C231.214 61.8161 230.986 61.4435 230.677 61.0186C227.601 56.7909 225.507 51.7074 224.533 46.101C224.191 44.1297 224.058 39.4368 224.282 37.1991C224.863 31.383 227.275 24.9813 230.623 20.3711C230.975 19.8867 231.242 19.4702 231.217 19.4455C231.193 19.4208 230.567 19.7178 229.826 20.1056ZM275.984 31.0718C270.562 42.3499 259.2 49.8779 246.619 50.5275C244.777 50.6227 241.551 50.5315 240.32 50.3496L239.805 50.2735L240.114 50.5413C240.736 51.08 242.814 52.2848 244.7 53.2006C251.1 56.3083 258.264 57.2811 265.362 56.007L267.1 55.695L268.109 54.6319C273.41 49.0452 276.436 42.1911 276.943 34.6198C277.064 32.8058 276.996 29.5924 276.833 29.5058C276.791 29.4834 276.409 30.1881 275.984 31.0718ZM226.695 37.8656C226.541 38.7953 226.605 42.729 226.8 44.3997C227.602 51.2538 230.284 57.3549 234.848 62.7036C235.797 63.8165 235.863 63.8462 238.517 64.3826C240.98 64.8804 242.214 64.9999 244.891 65C250.184 65.0004 254.996 63.8187 259.625 61.382C260.88 60.7212 263.344 59.1685 263.264 59.0887C263.238 59.0626 262.326 59.1008 261.238 59.1738C258.933 59.3286 256.011 59.1786 253.529 58.778C241.625 56.8563 231.513 48.8388 226.91 37.6725C226.784 37.3686 226.776 37.3766 226.695 37.8656Z" fill="#00ADB5"/>
<path d="M256.965 32.7932C256.965 39.5826 251.489 45.0864 244.733 45.0864C237.977 45.0864 232.5 39.5826 232.5 32.7932C232.5 26.0039 237.977 20.5 244.733 20.5C251.489 20.5 256.965 26.0039 256.965 32.7932Z" fill="#242A33"/>
<path fill-rule="evenodd" clip-rule="evenodd" d="M244.733 21C238.255 21 233 26.2777 233 32.7932C233 39.3088 238.255 44.5864 244.733 44.5864C251.21 44.5864 256.465 39.3088 256.465 32.7932C256.465 26.2777 251.21 21 244.733 21ZM232 32.7932C232 25.73 237.698 20 244.733 20C251.767 20 257.465 25.73 257.465 32.7932C257.465 39.8564 251.767 45.5864 244.733 45.5864C237.698 45.5864 232 39.8564 232 32.7932Z" fill="#919498"/>
<path d="M252.968 32.7931C252.968 37.3751 249.308 41.0895 244.793 41.0895C240.278 41.0895 236.618 37.3751 236.618 32.7931C236.618 28.2112 240.278 24.4967 244.793 24.4967C249.308 24.4967 252.968 28.2112 252.968 32.7931Z" fill="#242A33"/>
<path fill-rule="evenodd" clip-rule="evenodd" d="M244.793 25.9967C241.127 25.9967 238.118 29.0187 238.118 32.7931C238.118 36.5676 241.127 39.5895 244.793 39.5895C248.459 39.5895 251.468 36.5676 251.468 32.7931C251.468 29.0187 248.459 25.9967 244.793 25.9967ZM235.118 32.7931C235.118 27.4036 239.429 22.9967 244.793 22.9967C250.157 22.9967 254.468 27.4036 254.468 32.7931C254.468 38.1827 250.157 42.5895 244.793 42.5895C239.429 42.5895 235.118 38.1827 235.118 32.7931Z" fill="#919498"/>
<path d="M248.851 32.7933C248.851 35.101 247.034 36.9718 244.793 36.9718C242.552 36.9718 240.736 35.101 240.736 32.7933C240.736 30.4856 242.552 28.6148 244.793 28.6148C247.034 28.6148 248.851 30.4856 248.851 32.7933Z" fill="black"/>
<path d="M244.248 29.7654C244.248 30.7353 243.462 31.5216 242.492 31.5216C241.522 31.5216 240.736 30.7353 240.736 29.7654C240.736 28.7955 241.522 28.0093 242.492 28.0093C243.462 28.0093 244.248 28.7955 244.248 29.7654Z" fill="white"/>
<path d="M247.76 36.7296C247.76 37.1978 247.38 37.5774 246.912 37.5774C246.444 37.5774 246.064 37.1978 246.064 36.7296C246.064 36.2614 246.444 35.8818 246.912 35.8818C247.38 35.8818 247.76 36.2614 247.76 36.7296Z" fill="white"/>
<path d="M8.976 55.688H9.312C9.376 55.688 9.42933 55.7147 9.472 55.768C9.51467 55.8107 9.536 55.864 9.536 55.928V56.776C9.536 56.9253 9.46133 57 9.312 57H9.008C8.60267 57 8.23467 56.8987 7.904 56.696C7.57333 56.4827 7.30667 56.184 7.104 55.8C6.89067 56.184 6.60267 56.4827 6.24 56.696C5.888 56.8987 5.50933 57 5.104 57H2.912C2.67733 57 2.45333 56.9573 2.24 56.872C2.03733 56.776 1.856 56.648 1.696 56.488C1.54667 56.328 1.424 56.1467 1.328 55.944C1.24267 55.7307 1.2 55.5067 1.2 55.272V53.576H2.144V54.984C2.144 55.176 2.19733 55.3413 2.304 55.48C2.41067 55.6187 2.57067 55.688 2.784 55.688H5.12C5.344 55.688 5.54667 55.64 5.728 55.544C5.90933 55.448 6.05867 55.32 6.176 55.16C6.304 55 6.38933 54.824 6.432 54.632C6.47467 54.4293 6.46933 54.2267 6.416 54.024L5.232 49.72L6.272 49.336L7.792 54.776C7.86667 55.0427 8.01067 55.2613 8.224 55.432C8.448 55.6027 8.69867 55.688 8.976 55.688ZM11.5365 50.248H12.8965V48.888H11.5365V50.248ZM15.0725 56.776C15.0725 56.9253 14.9978 57 14.8485 57H13.8565C13.6752 57 13.4938 56.9733 13.3125 56.92C13.1312 56.8667 12.9605 56.792 12.8005 56.696C12.6405 56.6 12.5018 56.488 12.3845 56.36C12.2672 56.232 12.1872 56.0933 12.1445 55.944C11.9632 56.2533 11.7018 56.5093 11.3605 56.712C11.0298 56.904 10.6778 57 10.3045 57H9.3125C9.16317 57 9.0885 56.9253 9.0885 56.776V55.928C9.0885 55.864 9.10983 55.8107 9.1525 55.768C9.19517 55.7147 9.2485 55.688 9.3125 55.688H10.3525C10.6618 55.688 10.9285 55.592 11.1525 55.4C11.3872 55.208 11.5365 54.968 11.6005 54.68L12.0965 52.152L13.1845 52.328L12.7685 54.44C12.7365 54.6 12.7418 54.76 12.7845 54.92C12.8272 55.0693 12.9018 55.2027 13.0085 55.32C13.1152 55.4267 13.2432 55.5173 13.3925 55.592C13.5418 55.656 13.7018 55.688 13.8725 55.688H14.8485C14.9125 55.688 14.9658 55.7147 15.0085 55.768C15.0512 55.8107 15.0725 55.864 15.0725 55.928V56.776ZM14.8438 57C14.6944 57 14.6197 56.9253 14.6197 56.776V55.912C14.6197 55.8587 14.6411 55.8107 14.6837 55.768C14.7264 55.7147 14.7797 55.688 14.8438 55.688H15.3558C15.6651 55.688 15.9318 55.592 16.1558 55.4C16.3904 55.208 16.5344 54.968 16.5878 54.68L16.9238 53.032C16.9664 52.7867 17.0518 52.5573 17.1798 52.344C17.3078 52.1307 17.4624 51.9493 17.6438 51.8C17.8251 51.6507 18.0278 51.5333 18.2518 51.448C18.4864 51.3627 18.7318 51.32 18.9878 51.32H19.8838C20.1931 51.32 20.4811 51.3787 20.7478 51.496C21.0251 51.6133 21.2651 51.7733 21.4678 51.976C21.6704 52.1787 21.8304 52.4133 21.9478 52.68C22.0651 52.9467 22.1238 53.2347 22.1238 53.544V54.52C22.1238 54.8507 22.2358 55.128 22.4598 55.352C22.6838 55.576 22.9558 55.688 23.2758 55.688H23.7878C23.8518 55.688 23.9051 55.7147 23.9478 55.768C23.9904 55.8107 24.0118 55.8587 24.0118 55.912V56.776C24.0118 56.9253 23.9371 57 23.7878 57H23.4838C23.1638 57 22.8598 56.936 22.5718 56.808C22.2838 56.68 22.0331 56.4773 21.8198 56.2C21.7344 56.52 21.5904 56.7333 21.3878 56.84C21.1851 56.9467 20.9451 57 20.6678 57H18.7158C18.3744 57 18.0598 56.92 17.7718 56.76C17.4838 56.5893 17.2544 56.3173 17.0838 55.944C16.8918 56.3173 16.6358 56.5893 16.3158 56.76C15.9958 56.92 15.6598 57 15.3078 57H14.8438ZM18.5878 55.688H21.0198V53.544C21.0198 53.2667 20.9184 53.032 20.7158 52.84C20.5238 52.6373 20.2838 52.536 19.9958 52.536H18.9557C18.7104 52.536 18.4971 52.616 18.3158 52.776C18.1344 52.9253 18.0171 53.1173 17.9638 53.352L17.7238 54.648C17.6704 54.9253 17.7291 55.1707 17.8998 55.384C18.0811 55.5867 18.3104 55.688 18.5878 55.688ZM28.0533 57C27.6586 57 27.2959 56.9093 26.9653 56.728C26.6346 56.5467 26.3626 56.2853 26.1493 55.944C25.9253 56.2853 25.6479 56.5467 25.3173 56.728C24.9866 56.9093 24.6293 57 24.2453 57H23.7812C23.7172 57 23.6639 56.9787 23.6212 56.936C23.5679 56.8933 23.5466 56.84 23.5572 56.776V55.912C23.5572 55.7627 23.6319 55.688 23.7812 55.688H24.4373C24.7573 55.688 25.0293 55.576 25.2533 55.352C25.4879 55.128 25.6053 54.8507 25.6053 54.52V52.04H26.7093V54.552C26.7093 54.872 26.8213 55.144 27.0453 55.368C27.2693 55.5813 27.5413 55.688 27.8613 55.688H28.1333C28.4426 55.688 28.7093 55.5973 28.9333 55.416C29.1679 55.224 29.3173 54.9733 29.3813 54.664L29.8773 52.152L30.9813 52.328L30.5493 54.44C30.5173 54.6107 30.5226 54.7707 30.5653 54.92C30.6186 55.0693 30.6933 55.2027 30.7893 55.32C30.8959 55.4267 31.0239 55.5173 31.1733 55.592C31.3226 55.656 31.4826 55.688 31.6533 55.688H33.0293V51.576H34.1333V55.56C34.1333 55.9973 33.9999 56.3493 33.7333 56.616C33.4773 56.872 33.1306 57 32.6933 57H31.6533C31.2906 57 30.9493 56.9093 30.6293 56.728C30.3199 56.5467 30.0853 56.2853 29.9253 55.944C29.7013 56.3067 29.4239 56.5733 29.0933 56.744C28.7733 56.9147 28.4266 57 28.0533 57ZM31.6853 50.264H30.3253V48.904H31.6853V50.264ZM29.4933 50.264H28.1333V48.904H29.4933V50.264ZM30.5493 48.312H29.1893V46.952H30.5493V48.312ZM33.3995 60.984L33.0475 59.896L34.9835 59.256C35.4422 59.1067 35.8102 58.8347 36.0875 58.44C36.3755 58.0453 36.5195 57.608 36.5195 57.128V52.072H37.6235V57.032C37.6235 57.4053 37.5648 57.768 37.4475 58.12C37.3302 58.472 37.1648 58.792 36.9515 59.08C36.7488 59.368 36.4982 59.624 36.1995 59.848C35.9115 60.072 35.5915 60.2427 35.2395 60.36L33.3995 60.984ZM36.3755 48.824H37.7355V50.184H36.3755V48.824ZM38.6495 60.984L38.2975 59.896L40.2495 59.256C40.6975 59.1067 41.0602 58.8347 41.3375 58.44C41.6255 58.0453 41.7695 57.608 41.7695 57.128V52.056H42.8575V57.032C42.8575 57.4053 42.7988 57.7627 42.6815 58.104C42.5748 58.456 42.4148 58.776 42.2015 59.064C41.9988 59.3627 41.7482 59.6187 41.4495 59.832C41.1615 60.056 40.8415 60.232 40.4895 60.36L38.6495 60.984ZM46.3665 57H45.2625V46.456H46.3665V57ZM58.8604 54.776C59.2017 54.8507 59.4737 55.0053 59.6764 55.24C59.879 55.4747 59.9804 55.7627 59.9804 56.104V56.744C59.9804 57.1387 59.9057 57.512 59.7564 57.864C59.607 58.216 59.399 58.52 59.1324 58.776C58.8764 59.0427 58.5724 59.2507 58.2204 59.4C57.879 59.5493 57.511 59.624 57.1164 59.624H53.8844C53.447 59.624 53.031 59.5387 52.6364 59.368C52.2524 59.1973 51.9164 58.968 51.6284 58.68C51.3404 58.392 51.111 58.0507 50.9404 57.656C50.7697 57.272 50.6844 56.856 50.6844 56.408V52.728H51.7884V56.232C51.7884 56.52 51.8417 56.7867 51.9484 57.032C52.055 57.288 52.2044 57.5067 52.3964 57.688C52.5884 57.88 52.8124 58.0293 53.0684 58.136C53.3244 58.2533 53.5964 58.312 53.8844 58.312H57.1644C57.399 58.312 57.6177 58.264 57.8204 58.168C58.0337 58.0827 58.215 57.96 58.3644 57.8C58.5244 57.6507 58.647 57.4693 58.7324 57.256C58.8284 57.0427 58.8764 56.8187 58.8764 56.584V55.96L54.5084 54.936V53.24C54.5084 52.856 54.5724 52.4987 54.7004 52.168C54.839 51.8267 55.0257 51.528 55.2604 51.272C55.495 51.016 55.7617 50.808 56.0604 50.648C56.3697 50.488 56.7004 50.3867 57.0524 50.344L58.9084 50.104L59.0844 51.256L56.9724 51.544C56.567 51.608 56.231 51.8053 55.9644 52.136C55.7084 52.456 55.5804 52.8187 55.5804 53.224V54.008L58.8604 54.776ZM63.3353 57H62.2313V46.456H63.3353V57ZM67.6531 53.24C67.6531 52.568 67.8291 52.0133 68.1811 51.576C68.5438 51.1387 69.0078 50.8453 69.5731 50.696L71.7811 50.136V48.824H72.8851V54.44C72.8851 54.6107 72.9225 54.7707 72.9971 54.92C73.0718 55.0693 73.1678 55.2027 73.2851 55.32C73.4025 55.4267 73.5411 55.5173 73.7011 55.592C73.8718 55.656 74.0425 55.688 74.2131 55.688H74.6931C74.8425 55.688 74.9171 55.7627 74.9171 55.912V56.776C74.9171 56.9253 74.8425 57 74.6931 57H74.2131C73.7118 57 73.2691 56.8667 72.8851 56.6C72.5011 56.3333 72.2131 55.9867 72.0211 55.56C71.8291 55.72 71.5891 55.8 71.3011 55.8H69.1571C68.6771 55.8 68.3038 55.6667 68.0371 55.4C67.7811 55.1333 67.6531 54.76 67.6531 54.28V53.24ZM71.7811 51.304L69.8131 51.816C69.4825 51.9013 69.2211 52.088 69.0291 52.376C68.8478 52.6533 68.7571 52.952 68.7571 53.272V54.488H71.7811V51.304ZM76.6235 55.688C76.9435 55.688 77.2155 55.576 77.4395 55.352C77.6635 55.128 77.7755 54.8613 77.7755 54.552V51.608H78.8795V54.552C78.8795 54.8933 78.8155 55.2133 78.6875 55.512C78.5595 55.8107 78.3835 56.072 78.1595 56.296C77.9355 56.5093 77.6742 56.68 77.3755 56.808C77.0875 56.936 76.7728 57 76.4315 57H74.6875C74.5382 57 74.4635 56.9253 74.4635 56.776V55.928C74.4635 55.864 74.4848 55.8107 74.5275 55.768C74.5702 55.7147 74.6235 55.688 74.6875 55.688H76.6235ZM74.7515 60.28H76.1115V58.92H74.7515V60.28ZM76.9435 60.28H78.3035V58.92H76.9435V60.28ZM89.0541 55.688H89.3901C89.4541 55.688 89.5075 55.7147 89.5501 55.768C89.5928 55.8107 89.6141 55.864 89.6141 55.928V56.776C89.6141 56.9253 89.5395 57 89.3901 57H89.0861C88.6808 57 88.3128 56.8987 87.9821 56.696C87.6515 56.4827 87.3848 56.184 87.1821 55.8C86.9688 56.184 86.6808 56.4827 86.3181 56.696C85.9661 56.8987 85.5875 57 85.1821 57H82.9901C82.7555 57 82.5315 56.9573 82.3181 56.872C82.1155 56.776 81.9341 56.648 81.7741 56.488C81.6248 56.328 81.5021 56.1467 81.4061 55.944C81.3208 55.7307 81.2781 55.5067 81.2781 55.272V53.576H82.2221V54.984C82.2221 55.176 82.2755 55.3413 82.3821 55.48C82.4888 55.6187 82.6488 55.688 82.8621 55.688H85.1981C85.4221 55.688 85.6248 55.64 85.8061 55.544C85.9875 55.448 86.1368 55.32 86.2541 55.16C86.3821 55 86.4675 54.824 86.5101 54.632C86.5528 54.4293 86.5475 54.2267 86.4941 54.024L85.3101 49.72L86.3501 49.336L87.8701 54.776C87.9448 55.0427 88.0888 55.2613 88.3021 55.432C88.5261 55.6027 88.7768 55.688 89.0541 55.688ZM89.3906 57C89.3373 57 89.2893 56.9787 89.2466 56.936C89.1933 56.8933 89.1666 56.8453 89.1666 56.792V55.896C89.1666 55.832 89.1933 55.784 89.2466 55.752C89.2893 55.7093 89.3373 55.688 89.3906 55.688H91.0706C90.9213 55.6347 90.804 55.4853 90.7186 55.24C90.644 54.984 90.6333 54.7227 90.6866 54.456L90.9106 53.336C90.964 53.1013 91.0493 52.8827 91.1666 52.68C91.2946 52.4773 91.444 52.3067 91.6146 52.168C91.796 52.0187 91.9986 51.9067 92.2226 51.832C92.4466 51.7467 92.676 51.704 92.9106 51.704H93.5026C93.812 51.704 94.0946 51.7627 94.3506 51.88C94.6173 51.9867 94.8466 52.136 95.0386 52.328C95.2306 52.52 95.38 52.7493 95.4866 53.016C95.5933 53.272 95.6466 53.5493 95.6466 53.848V55.144C95.6466 55.3147 95.6253 55.4427 95.5826 55.528C95.5506 55.6133 95.5346 55.6667 95.5346 55.688H98.1426V53.448C98.1426 53.0853 98.0466 52.7867 97.8546 52.552C97.6733 52.3173 97.4386 52.1573 97.1506 52.072L91.9026 50.44L92.2066 49.32L97.3426 50.92C97.8866 51.0907 98.34 51.3947 98.7026 51.832C99.0653 52.2587 99.2466 52.8027 99.2466 53.464V55.48C99.2466 55.96 99.1133 56.3333 98.8466 56.6C98.58 56.8667 98.2066 57 97.7266 57H95.3266V56.248C95.3053 56.3013 95.2573 56.3707 95.1826 56.456C95.1186 56.5413 95.028 56.6267 94.9106 56.712C94.7933 56.7867 94.66 56.856 94.5106 56.92C94.3613 56.9733 94.196 57 94.0146 57H89.3906ZM94.5586 55.688V53.8C94.5586 53.5333 94.4626 53.3093 94.2706 53.128C94.0893 52.936 93.86 52.84 93.5826 52.84H92.8626C92.6386 52.84 92.436 52.9147 92.2546 53.064C92.084 53.2133 91.9773 53.4 91.9346 53.624L91.7266 54.712C91.6733 54.9893 91.732 55.224 91.9026 55.416C92.084 55.5973 92.3026 55.688 92.5586 55.688H94.5586ZM105.017 57.832C104.836 57.768 104.67 57.704 104.521 57.64C104.382 57.5867 104.244 57.5227 104.105 57.448C103.977 57.3627 103.844 57.2507 103.705 57.112C103.577 56.9733 103.508 56.7973 103.497 56.584C103.497 56.4027 103.529 56.2053 103.593 55.992C103.668 55.768 103.721 55.5973 103.753 55.48L104.441 53.528L105.273 53.832L104.537 55.96L105.529 56.344L105.017 57.832ZM106.446 60.984L106.094 59.896L108.046 59.256C108.494 59.1067 108.857 58.8347 109.134 58.44C109.422 58.0453 109.566 57.608 109.566 57.128V52.056H110.654V57.032C110.654 57.4053 110.596 57.7627 110.478 58.104C110.372 58.456 110.212 58.776 109.998 59.064C109.796 59.3627 109.545 59.6187 109.246 59.832C108.958 60.056 108.638 60.232 108.286 60.36L106.446 60.984ZM116.323 56.776C116.323 56.9253 116.249 57 116.099 57H115.507C115.177 57 114.862 56.936 114.563 56.808C114.265 56.68 114.003 56.504 113.779 56.28C113.555 56.056 113.379 55.7947 113.251 55.496C113.123 55.1973 113.059 54.8827 113.059 54.552V46.456H114.163V54.536C114.163 54.856 114.275 55.128 114.499 55.352C114.734 55.576 115.006 55.688 115.315 55.688H116.099C116.163 55.688 116.217 55.7147 116.259 55.768C116.302 55.8107 116.323 55.864 116.323 55.928V56.776ZM118.462 52.536L117.646 51.768L121.854 46.856L122.638 47.592L119.486 51.336H125.79C126.099 51.336 126.387 51.3947 126.654 51.512C126.931 51.6293 127.171 51.7893 127.374 51.992C127.576 52.184 127.736 52.4187 127.854 52.696C127.971 52.9627 128.03 53.2507 128.03 53.56V54.76C128.03 55.0693 127.971 55.3627 127.854 55.64C127.736 55.9067 127.571 56.1413 127.358 56.344C127.155 56.5467 126.915 56.7067 126.638 56.824C126.371 56.9413 126.083 57 125.774 57H116.094C116.03 57 115.976 56.9787 115.934 56.936C115.891 56.8827 115.87 56.8293 115.87 56.776V55.912C115.87 55.7627 115.944 55.688 116.094 55.688H125.934C126.211 55.6987 126.446 55.608 126.638 55.416C126.83 55.2133 126.926 54.968 126.926 54.68V53.608C126.926 53.3093 126.819 53.0587 126.606 52.856C126.403 52.6427 126.147 52.536 125.838 52.536H118.462ZM116.974 49.896L120.206 46.072L120.782 46.6L117.55 50.392L116.974 49.896ZM137.992 55.688H138.328C138.392 55.688 138.445 55.7147 138.488 55.768C138.53 55.8107 138.552 55.864 138.552 55.928V56.776C138.552 56.9253 138.477 57 138.328 57H138.024C137.618 57 137.25 56.8987 136.92 56.696C136.589 56.4827 136.322 56.184 136.12 55.8C135.906 56.184 135.618 56.4827 135.256 56.696C134.904 56.8987 134.525 57 134.12 57H131.928C131.693 57 131.469 56.9573 131.256 56.872C131.053 56.776 130.872 56.648 130.712 56.488C130.562 56.328 130.44 56.1467 130.344 55.944C130.258 55.7307 130.216 55.5067 130.216 55.272V53.576H131.16V54.984C131.16 55.176 131.213 55.3413 131.32 55.48C131.426 55.6187 131.586 55.688 131.8 55.688H134.136C134.36 55.688 134.562 55.64 134.744 55.544C134.925 55.448 135.074 55.32 135.192 55.16C135.32 55 135.405 54.824 135.448 54.632C135.49 54.4293 135.485 54.2267 135.432 54.024L134.248 49.72L135.288 49.336L136.808 54.776C136.882 55.0427 137.026 55.2613 137.24 55.432C137.464 55.6027 137.714 55.688 137.992 55.688ZM140.264 55.688C140.584 55.688 140.856 55.576 141.08 55.352C141.304 55.128 141.416 54.8613 141.416 54.552V51.608H142.52V54.552C142.52 54.8933 142.456 55.2133 142.328 55.512C142.2 55.8107 142.024 56.072 141.8 56.296C141.576 56.5093 141.315 56.68 141.016 56.808C140.728 56.936 140.413 57 140.072 57H138.328C138.179 57 138.104 56.9253 138.104 56.776V55.928C138.104 55.864 138.125 55.8107 138.168 55.768C138.211 55.7147 138.264 55.688 138.328 55.688H140.264ZM141.24 49.704H142.6V48.344H141.24V49.704ZM148.042 56.776C148.042 56.9253 147.967 57 147.818 57H147.226C146.895 57 146.581 56.936 146.282 56.808C145.983 56.68 145.722 56.504 145.498 56.28C145.274 56.056 145.098 55.7947 144.97 55.496C144.842 55.1973 144.778 54.8827 144.778 54.552V46.456H145.882V54.536C145.882 54.856 145.994 55.128 146.218 55.352C146.453 55.576 146.725 55.688 147.034 55.688H147.818C147.882 55.688 147.935 55.7147 147.978 55.768C148.021 55.8107 148.042 55.864 148.042 55.928V56.776ZM151.557 55.688H153.989V53.544C153.989 53.2667 153.887 53.032 153.685 52.84C153.493 52.6373 153.253 52.536 152.965 52.536H151.924C151.679 52.536 151.466 52.616 151.285 52.776C151.103 52.9253 150.986 53.1173 150.933 53.352L150.693 54.648C150.639 54.9253 150.698 55.1707 150.869 55.384C151.05 55.5867 151.279 55.688 151.557 55.688ZM149.557 54.68L149.893 53.032C149.935 52.7867 150.021 52.5573 150.149 52.344C150.277 52.1307 150.431 51.9493 150.613 51.8C150.794 51.6507 150.997 51.5333 151.221 51.448C151.455 51.3627 151.701 51.32 151.957 51.32H152.853C153.162 51.32 153.45 51.3787 153.717 51.496C153.994 51.6133 154.234 51.7733 154.437 51.976C154.639 52.1787 154.799 52.4133 154.917 52.68C155.034 52.9467 155.093 53.2347 155.093 53.544V55.56C155.093 55.9867 154.959 56.3333 154.693 56.6C154.437 56.8667 154.085 57 153.637 57H151.685C151.343 57 151.029 56.92 150.741 56.76C150.463 56.5893 150.234 56.3173 150.053 55.944C149.861 56.3173 149.605 56.5893 149.285 56.76C148.965 56.92 148.629 57 148.277 57H147.812C147.663 57 147.588 56.9253 147.588 56.776V55.912C147.588 55.8587 147.61 55.8107 147.652 55.768C147.695 55.7147 147.748 55.688 147.812 55.688H148.325C148.634 55.688 148.901 55.592 149.125 55.4C149.359 55.208 149.503 54.968 149.557 54.68ZM175.581 54.616C175.581 54.8933 175.698 55.144 175.933 55.368C176.168 55.5813 176.44 55.688 176.749 55.688H177.389C177.538 55.688 177.613 55.7627 177.613 55.912V56.76C177.613 56.824 177.592 56.8827 177.549 56.936C177.506 56.9787 177.453 57 177.389 57H176.941C176.546 57 176.184 56.9093 175.853 56.728C175.522 56.5467 175.25 56.2853 175.037 55.944C174.802 56.2853 174.514 56.5467 174.173 56.728C173.842 56.9093 173.49 57 173.117 57C172.744 57 172.402 56.9093 172.093 56.728C171.794 56.5467 171.554 56.2853 171.373 55.944C171.16 56.3067 170.893 56.5733 170.573 56.744C170.253 56.9147 169.906 57 169.533 57C169.288 57 169.037 56.9573 168.781 56.872C168.536 56.776 168.317 56.6053 168.125 56.36V57.032C168.125 57.416 168.05 57.7733 167.901 58.104C167.752 58.4347 167.549 58.7227 167.293 58.968C167.037 59.224 166.733 59.4213 166.381 59.56C166.04 59.7093 165.677 59.784 165.293 59.784H162.541C162.093 59.784 161.672 59.6987 161.277 59.528C160.893 59.368 160.557 59.144 160.269 58.856C159.981 58.568 159.752 58.2267 159.581 57.832C159.41 57.448 159.325 57.032 159.325 56.584V52.312H160.429V56.408C160.429 56.696 160.482 56.9627 160.589 57.208C160.706 57.464 160.856 57.6827 161.037 57.864C161.229 58.056 161.453 58.2053 161.709 58.312C161.965 58.4187 162.237 58.472 162.525 58.472H165.277C165.522 58.472 165.752 58.424 165.965 58.328C166.178 58.2427 166.36 58.12 166.509 57.96C166.669 57.8107 166.792 57.6293 166.877 57.416C166.973 57.2027 167.021 56.9733 167.021 56.728V52.04H168.125V54.536C168.125 54.856 168.242 55.1333 168.477 55.368C168.712 55.592 168.984 55.704 169.293 55.704H169.581C169.89 55.704 170.162 55.608 170.397 55.416C170.632 55.224 170.776 54.9733 170.829 54.664L171.341 52.152L172.413 52.328L171.997 54.44C171.954 54.7813 172.04 55.0747 172.253 55.32C172.477 55.5653 172.76 55.688 173.101 55.688H173.325C173.645 55.688 173.917 55.576 174.141 55.352C174.365 55.128 174.477 54.856 174.477 54.536V51.576H175.581V54.616ZM188.335 54.536C188.335 54.856 188.447 55.128 188.671 55.352C188.905 55.576 189.177 55.688 189.487 55.688H190.095C190.159 55.688 190.212 55.7147 190.255 55.768C190.297 55.8107 190.319 55.8587 190.319 55.912V56.776C190.329 56.8293 190.308 56.8827 190.255 56.936C190.212 56.9787 190.159 57 190.095 57H189.695C189.311 57 188.959 56.9147 188.639 56.744C188.319 56.5627 188.052 56.312 187.839 55.992C187.636 56.3227 187.38 56.5733 187.071 56.744C186.772 56.9147 186.436 57 186.063 57H177.391C177.316 57 177.263 56.9787 177.231 56.936C177.188 56.8827 177.167 56.824 177.167 56.76V55.912C177.167 55.7627 177.241 55.688 177.391 55.688H186.223C186.5 55.688 186.735 55.592 186.927 55.4C187.129 55.1973 187.231 54.9573 187.231 54.68V53.608C187.231 53.3093 187.124 53.0533 186.911 52.84C186.697 52.6267 186.441 52.52 186.143 52.52H178.751L177.951 51.768L182.143 46.856L182.943 47.592L179.775 51.32H186.079C186.388 51.32 186.681 51.3787 186.959 51.496C187.236 51.6133 187.476 51.7733 187.679 51.976C187.881 52.1787 188.041 52.4187 188.159 52.696C188.276 52.9733 188.335 53.2667 188.335 53.576V54.536ZM196.654 56.44L194.318 56.744C193.71 56.8293 193.096 56.8933 192.478 56.936C191.859 56.9787 191.246 57 190.638 57H190.094C189.944 57 189.87 56.9253 189.87 56.776V55.912C189.87 55.8587 189.891 55.8107 189.934 55.768C189.976 55.7147 190.03 55.688 190.094 55.688H191.998C191.966 55.6133 191.934 55.544 191.902 55.48C191.88 55.4053 191.859 55.3253 191.838 55.24L191.454 53.224C191.39 52.904 191.4 52.5947 191.486 52.296C191.582 51.9973 191.726 51.736 191.918 51.512C192.11 51.2773 192.344 51.0907 192.622 50.952C192.899 50.8133 193.203 50.744 193.534 50.744H195.998V51.96H193.438C193.15 51.96 192.915 52.072 192.734 52.296C192.552 52.52 192.488 52.776 192.542 53.064L193.038 55.64L196.462 55.288L196.654 56.44Z" fill="#626E94"/>
</svg>
