<svg width="55" height="54" viewBox="0 0 55 54" fill="none" xmlns="http://www.w3.org/2000/svg">
<path fill-rule="evenodd" clip-rule="evenodd" d="M25.2179 21.5581C26.488 21.0306 27.9062 20.8829 29.261 21.1572C30.6158 21.4315 31.8647 22.0857 32.8596 23.0564C33.8333 24.027 34.5107 25.272 34.7859 26.6225C35.0611 27.9731 34.9341 29.3869 34.4049 30.653C33.8756 31.9402 32.9866 33.0375 31.8435 33.7972C30.7004 34.5779 29.3457 35 27.9697 35C26.5938 35.0211 25.2179 34.6201 24.0748 33.8605C22.9105 33.1008 22.0003 32.0246 21.4499 30.7585C20.7302 29.0493 20.7302 27.1079 21.4288 25.3986C22.1273 23.6683 23.4821 22.2967 25.2179 21.5792V21.5581V21.5581Z" fill="#2A2941"/>
<path fill-rule="evenodd" clip-rule="evenodd" d="M24.8155 20.6297L24.371 20.8196L24.8155 20.6297C23.3549 21.2628 22.1272 22.2968 21.2593 23.6262C20.3914 24.9556 19.9468 26.5171 19.968 28.0786C19.9892 29.6613 20.476 31.2017 21.3863 32.51C22.2753 33.8183 23.5454 34.8312 25.0272 35.401C26.509 35.9918 28.1178 36.1184 29.663 35.8019C31.2083 35.4854 32.6266 34.7046 33.7485 33.5651C34.8492 32.4256 35.6113 31.0118 35.9076 29.4503C36.204 27.8887 36.0347 26.285 35.3996 24.829C34.9762 23.8583 34.3835 22.972 33.6215 22.2335C32.8594 21.4949 31.9704 20.904 30.9755 20.5242C30.0017 20.1233 28.9433 19.9334 27.8849 19.9545C26.8265 19.9967 25.7893 20.2288 24.8155 20.6297ZM25.2177 21.5793C26.4878 21.0518 27.9061 20.904 29.2608 21.1784C30.6156 21.4527 31.8645 22.1068 32.8594 23.0775C33.8332 24.0482 34.5105 25.2932 34.7857 26.6437C35.0609 27.9942 34.9339 29.4081 34.4047 30.6742C33.8755 31.9614 32.9864 33.0587 31.8434 33.8183C30.7003 34.5991 29.3455 35.0211 27.9696 35.0211C26.5936 35.0422 25.2177 34.6413 24.0746 33.8816C22.9104 33.122 22.0002 32.0458 21.4709 30.7797C20.7512 29.0704 20.7301 27.1291 21.4498 25.3987C22.1272 23.6895 23.5031 22.3179 25.2177 21.5793Z" fill="#2A2941"/>
<path fill-rule="evenodd" clip-rule="evenodd" d="M22.8894 30.0621C22.3602 28.7538 22.3602 27.2978 22.9106 26.0106C23.461 24.7234 24.4982 23.6894 25.7895 23.1619" fill="#2A2941"/>
<path d="M22.8894 30.0621C22.3602 28.7538 22.3602 27.2978 22.9106 26.0106C23.461 24.7234 24.4982 23.6894 25.7895 23.1619" stroke="#2A2941" stroke-width="1.0278" stroke-miterlimit="1.22" stroke-linecap="square"/>
<path fill-rule="evenodd" clip-rule="evenodd" d="M32.796 25.863C33.3252 27.1713 33.3252 28.6274 32.7749 29.9146C32.2245 31.2018 31.1873 32.2358 29.896 32.7844" fill="#2A2941"/>
<path d="M32.796 25.863C33.3252 27.1713 33.3252 28.6274 32.7749 29.9146C32.2245 31.2018 31.1873 32.2358 29.896 32.7844" stroke="#2A2941" stroke-width="1.0278" stroke-miterlimit="1.22" stroke-linecap="square"/>
<path fill-rule="evenodd" clip-rule="evenodd" d="M30.8696 15.0378C30.8696 15.0378 24.0958 17.8866 23.1644 18.5618C22.4447 19.2582 21.8097 20.039 21.2805 20.883C20.6878 21.706 20.0739 22.5712 19.5658 23.3519C18.5709 24.8291 17.7665 25.7575 18.6979 26.0108C19.079 26.1163 20.4337 24.9135 21.7885 23.6263L24.8367 20.8197C24.4345 21.4317 25.4718 22.7611 26.4667 22.6134C27.144 22.5079 28.4141 21.7693 29.4514 21.5161C30.4886 21.2629 31.801 22.3813 33.5368 21.1785L30.8696 15.0378Z" fill="#2A2941"/>
<path fill-rule="evenodd" clip-rule="evenodd" d="M24.3076 22.6132C24.5828 22.9508 24.9215 23.2041 25.3237 23.3729C25.7259 23.5417 26.1492 23.605 26.5726 23.5628C27.25 23.4573 28.5624 22.7187 29.5996 22.4655C30.1077 22.4444 30.6157 22.5077 31.1026 22.6554C31.6318 22.7609 32.161 22.7609 32.669 22.6554C33.1982 22.5499 33.6851 22.3389 34.1085 22.0435L34.7858 21.5581L31.3778 13.7083L30.4464 14.1092C30.4464 14.1092 23.5032 17.0634 22.5506 17.7387C21.7251 18.4984 21.0265 19.3635 20.4338 20.292C19.8411 21.1361 19.2272 22.0012 18.698 22.782C18.1265 23.4995 17.6608 24.2802 17.3009 25.1243C17.2374 25.3142 17.2163 25.5252 17.2374 25.7152C17.2586 25.9051 17.3221 26.095 17.4068 26.2849C17.5126 26.4537 17.6608 26.6225 17.809 26.7492C17.9783 26.8758 18.1688 26.9602 18.3593 27.0024C18.7404 27.0868 19.1214 27.0235 19.4601 26.8336C20.5397 26.1161 21.5346 25.2931 22.4448 24.3646L24.3076 22.6132ZM30.8697 14.9955C30.8697 14.9955 24.0959 17.8442 23.1645 18.5195C22.4448 19.2158 21.8098 19.9966 21.2806 20.8407C20.6878 21.6636 20.074 22.5288 19.5659 23.3096C18.571 24.7656 17.7666 25.6941 18.698 25.9684C19.0791 26.0739 20.4338 24.8711 21.7886 23.5839L24.8368 20.7773C24.4346 21.3893 25.4718 22.7187 26.4668 22.571C27.1441 22.4655 28.4142 21.7269 29.4515 21.4737C30.4887 21.2205 31.8011 22.3389 33.5369 21.1361L30.8697 14.9955Z" fill="#2A2941"/>
<path fill-rule="evenodd" clip-rule="evenodd" d="M29.1552 18.5828C28.8588 18.9837 28.5201 19.3424 28.1391 19.6801C27.5676 20.081 25.9588 20.6296 25.0485 21.1572C24.6675 21.4526 24.3288 21.7902 24.0325 22.1701" fill="#2A2941"/>
<path d="M29.1552 18.5828C28.8588 18.9837 28.5201 19.3424 28.1391 19.6801C27.5676 20.081 25.9588 20.6296 25.0485 21.1572C24.6675 21.4526 24.3288 21.7902 24.0325 22.1701" stroke="#2A2941" stroke-width="1.4214" stroke-miterlimit="1.22" stroke-linecap="round"/>
<path fill-rule="evenodd" clip-rule="evenodd" d="M33.1348 12.991L31.1238 13.8772L34.4684 21.6216L36.5005 20.7564L33.1348 12.991Z" fill="#2A2941"/>
<path fill-rule="evenodd" clip-rule="evenodd" d="M37.4107 21.115L33.4734 12.0413L30.1924 13.4973L34.1297 22.5499L37.4107 21.115ZM33.1136 12.9908L31.1026 13.8771L34.426 21.6004L36.4582 20.7352L33.1136 12.9908Z" fill="#2A2941"/>
<path fill-rule="evenodd" clip-rule="evenodd" d="M24.3076 41.1195C24.3076 41.1195 31.0814 38.2497 32.0128 37.5955C32.7325 36.8992 33.3675 36.1184 33.8968 35.2743C34.4895 34.4514 35.1033 33.5862 35.6114 32.8054C36.6063 31.3494 37.4107 30.3998 36.4793 30.1466C36.0982 30.0411 34.7435 31.2439 33.3887 32.5311C31.8646 33.966 30.3405 35.3376 30.3405 35.3376C30.7427 34.7468 29.7055 33.3963 28.7105 33.5651C28.0332 33.6706 26.7631 34.4092 25.7258 34.5991C24.6886 34.789 23.3762 33.7339 21.6404 34.9367L24.3076 41.1195Z" fill="#2A2941"/>
<path fill-rule="evenodd" clip-rule="evenodd" d="M30.8697 33.5229C30.5945 33.1853 30.2558 32.932 29.8536 32.7632C29.4514 32.5944 29.028 32.5311 28.6047 32.5733C27.9273 32.6788 26.6149 33.4174 25.5776 33.6706C25.0696 33.6917 24.5616 33.6284 24.0747 33.4807C23.5455 33.3963 23.0163 33.4174 22.5082 33.5229C22.0002 33.6495 21.5133 33.8605 21.09 34.177L20.4126 34.6413L23.8207 42.4911L24.7521 42.0902C24.7521 42.0902 31.6952 39.1571 32.6478 38.4818C33.4734 37.7221 34.1719 36.857 34.7646 35.9074C35.3573 35.0844 35.9712 34.1981 36.5004 33.4174C37.0508 32.6999 37.5376 31.9192 37.8975 31.0962C37.9822 30.8008 38.0033 30.5053 37.8975 30.2099C37.7917 29.9145 37.6435 29.6613 37.3895 29.4713C37.1354 29.2814 36.8603 29.1759 36.5639 29.1548C36.2676 29.1337 35.9712 29.2181 35.696 29.3658C34.6164 30.0833 33.6215 30.9274 32.7113 31.8347L30.8697 33.5229ZM24.3075 41.1406C24.3075 41.1406 31.0814 38.2708 32.0128 37.6166C32.7325 36.9203 33.3675 36.1395 33.8967 35.2954C34.4894 34.4725 35.1033 33.6073 35.6113 32.8265C36.6062 31.3705 37.4106 30.4209 36.4792 30.1677C36.0982 30.0622 34.7434 31.265 33.3887 32.5522C31.8646 33.9871 30.3405 35.3587 30.3405 35.3587C30.7427 34.7468 29.7054 33.4174 28.7105 33.5862C28.0331 33.6917 26.763 34.4092 25.7258 34.6202C24.6886 34.8312 23.3761 33.755 21.6404 34.9578L24.3075 41.1406Z" fill="#2A2941"/>
<path fill-rule="evenodd" clip-rule="evenodd" d="M26.001 37.5534C26.2973 37.1524 26.636 36.7937 26.9959 36.4561C27.5674 36.0551 29.1762 35.5065 30.0864 34.9789C30.4675 34.6835 30.8062 34.3459 31.1025 33.9661" fill="#2A2941"/>
<path d="M26.001 37.5534C26.2973 37.1524 26.636 36.7937 26.9959 36.4561C27.5674 36.0551 29.1762 35.5065 30.0864 34.9789C30.4675 34.6835 30.8062 34.3459 31.1025 33.9661" stroke="#2A2941" stroke-width="1.4214" stroke-miterlimit="1.22" stroke-linecap="round"/>
<path fill-rule="evenodd" clip-rule="evenodd" d="M22.0003 43.1665L24.0112 42.2802L20.6667 34.5359L18.6345 35.4011L22.0003 43.1665Z" fill="#2A2941"/>
<path fill-rule="evenodd" clip-rule="evenodd" d="M17.7031 35.0211L21.6404 44.0949L24.9215 42.6388L21.0477 33.5862L17.7031 35.0211ZM22.0003 43.1664L24.0112 42.2801L20.6667 34.5358L18.6345 35.4009L22.0003 43.1664Z" fill="#2A2941"/>
<path d="M26.7418 24.9766L26.89 25.3142C27.1017 25.2298 27.3134 25.1876 27.5251 25.1876C27.7156 25.1876 27.9061 25.2087 28.0966 25.2931C28.2236 25.3565 28.3718 25.4198 28.4776 25.5253C28.5623 25.6097 28.647 25.6941 28.6893 25.7996C28.7105 25.8418 28.7317 25.9051 28.7317 25.9684C28.7317 26.0317 28.7105 26.0739 28.6893 26.1372C28.647 26.2427 28.5623 26.3271 28.4565 26.3904C28.3718 26.4326 28.2448 26.4537 28.1601 26.4326C28.0543 26.4115 27.9696 26.3482 27.9061 26.2638C27.8214 26.1583 27.6944 26.0739 27.5674 26.0106C27.4404 25.9684 27.2922 25.9473 27.1652 25.9684L27.7791 27.2767C28.0119 27.2345 28.266 27.1923 28.4988 27.1712C28.6893 27.1712 28.8587 27.1712 29.028 27.2345C29.2185 27.2978 29.3667 27.3822 29.5149 27.5088C29.6631 27.6354 29.7901 27.8043 29.8747 27.9942C29.9806 28.2263 30.0441 28.4795 30.0229 28.7538C30.0017 29.0282 29.9171 29.2814 29.7689 29.4924C29.5996 29.7456 29.3667 29.9566 29.1127 30.1043L29.4937 30.8851C29.536 30.9695 29.5784 31.075 29.5784 31.1805C29.5784 31.2227 29.5572 31.2438 29.536 31.286C29.5149 31.3072 29.4937 31.3283 29.4514 31.3494C29.4302 31.3705 29.3879 31.3705 29.3667 31.3705C29.3244 31.3705 29.3032 31.3705 29.282 31.3494C29.2185 31.3072 29.155 31.2227 29.1339 31.1594L28.7317 30.3154C28.4988 30.3998 28.266 30.4631 28.0119 30.4631C27.8003 30.4631 27.5886 30.4209 27.3981 30.3365C27.2287 30.2732 27.0805 30.1888 26.9324 30.0621C26.8054 29.9566 26.7207 29.83 26.6572 29.6823C26.636 29.6401 26.6148 29.5768 26.6148 29.5135C26.6148 29.4502 26.636 29.408 26.6572 29.3447C26.6783 29.2814 26.6995 29.2392 26.7418 29.197C26.7842 29.1548 26.8265 29.1126 26.89 29.0915C26.9747 29.0493 27.0594 29.0282 27.1652 29.0282C27.2499 29.0493 27.3346 29.0915 27.3769 29.1548C27.4827 29.2603 27.5886 29.3869 27.7156 29.4713C27.8003 29.5346 27.9061 29.5979 28.0119 29.6401C28.1601 29.6612 28.2871 29.6612 28.4353 29.6401L27.7368 28.1841C27.4616 28.2263 27.1864 28.2685 26.9112 28.2685C26.6783 28.2685 26.4455 28.1841 26.255 28.0786C26.0221 27.9309 25.8528 27.741 25.7469 27.4877C25.6623 27.3189 25.5988 27.1501 25.5988 26.9602C25.5776 26.7703 25.6199 26.5804 25.6834 26.4115C25.8316 26.0317 26.128 25.7152 26.4878 25.5253L26.3185 25.2087C26.2338 25.0399 26.255 24.9133 26.4032 24.85C26.5302 24.7867 26.636 24.85 26.7207 25.0188L26.7418 24.9766ZM27.3557 27.3189L26.7842 26.1161C26.6572 26.2216 26.5513 26.3693 26.4878 26.517C26.4455 26.5804 26.4455 26.6648 26.4455 26.7492C26.4455 26.8336 26.4667 26.8969 26.4878 26.9813C26.509 27.0446 26.5513 27.1079 26.6148 27.1712C26.6783 27.2134 26.7418 27.2556 26.8054 27.2978C26.9747 27.34 27.1652 27.34 27.3346 27.2978L27.3557 27.3189ZM28.2025 28.0575L28.8587 29.4291C29.028 29.3025 29.155 29.1337 29.2397 28.9438C29.282 28.8593 29.3032 28.7749 29.3032 28.6694C29.3032 28.585 29.282 28.4795 29.2397 28.3951C29.1974 28.3107 29.155 28.2474 29.0915 28.1841C29.028 28.1208 28.9433 28.0786 28.8587 28.0575C28.647 28.0153 28.4565 28.0153 28.2448 28.0575H28.2025Z" fill="#2A2941" stroke="#2A2941" stroke-width="0.4811" stroke-linejoin="round"/>
<path fill-rule="evenodd" clip-rule="evenodd" d="M25.2813 19.2371C26.5514 18.7095 27.9697 18.5618 29.3245 18.8361C30.6792 19.1105 31.9281 19.7646 32.9231 20.7353C33.918 21.706 34.5742 22.951 34.8494 24.3015C35.1245 25.652 34.9975 27.0658 34.4683 28.3319C33.9391 29.6192 33.0501 30.7164 31.907 31.4761C30.7639 32.2569 29.4091 32.6789 28.012 32.6789C26.6361 32.7 25.2602 32.2991 24.1171 31.5394C22.9528 30.7797 22.0426 29.7036 21.5134 28.4163C20.7937 26.7071 20.7937 24.7657 21.4922 23.0565C22.212 21.3473 23.5667 19.9545 25.2813 19.2371Z" fill="#F5F8FC"/>
<path fill-rule="evenodd" clip-rule="evenodd" d="M24.8792 18.3085L24.4347 18.4984L24.8792 18.3085C23.4186 18.9415 22.1697 19.9755 21.323 21.3049C20.4551 22.6343 20.0106 24.1959 20.0317 25.7785C20.0529 27.3611 20.5398 28.9016 21.45 30.2099C22.3391 31.5182 23.6091 32.5311 25.0909 33.1219C26.5727 33.7128 28.1815 33.8605 29.7479 33.5228C31.2932 33.2063 32.7326 32.4256 33.8334 31.2861C34.9553 30.1466 35.6962 28.7116 35.9925 27.1712C36.2889 25.6097 36.1195 24.0059 35.4845 22.5499C34.6378 20.5875 33.0502 19.047 31.0603 18.2452C29.0705 17.4433 26.8479 17.4644 24.8792 18.3085ZM25.2814 19.2369C26.5515 18.7094 27.9698 18.5617 29.3246 18.836C30.6793 19.1103 31.9282 19.7645 32.9231 20.7352C33.918 21.7059 34.5743 22.9509 34.8494 24.3014C35.1246 25.6519 34.9976 27.0657 34.4684 28.3318C33.9392 29.619 33.0502 30.7163 31.9071 31.476C30.764 32.2567 29.4092 32.6788 28.0121 32.6788C26.6362 32.6999 25.2603 32.2989 24.1172 31.5393C22.9529 30.7796 22.0427 29.7034 21.5135 28.4162C20.7938 26.707 20.7726 24.7656 21.4923 23.0353C22.212 21.3471 23.5668 19.9544 25.2814 19.2369Z" fill="#2A2941"/>
<path fill-rule="evenodd" clip-rule="evenodd" d="M23.2069 27.6143C22.9528 27.0023 22.8258 26.3482 22.8258 25.6729C22.8258 25.0188 22.9528 24.3435 23.2069 23.7316C23.4609 23.1196 23.8419 22.571 24.3076 22.1067C24.7733 21.6425 25.3448 21.2627 25.9587 21.0094L26.1916 20.9039L26.0011 20.4397L25.7682 20.5452C24.3923 21.115 23.3127 22.1911 22.7412 23.5417C22.1696 24.9133 22.1696 26.4326 22.7412 27.8042L22.847 28.0363L23.3127 27.8464L23.2069 27.6143Z" fill="#2A2941"/>
<path fill-rule="evenodd" clip-rule="evenodd" d="M32.648 23.6261C33.156 24.8711 33.156 26.2638 32.6268 27.4877C32.0976 28.7327 31.1239 29.7034 29.8749 30.2099L29.6421 30.3154L29.8326 30.7796L30.0655 30.6741C31.4414 30.1043 32.521 29.0282 33.0925 27.6776C33.664 26.3271 33.664 24.7867 33.1137 23.4151L33.0502 23.1619L32.5845 23.3518L32.6903 23.5839L32.648 23.6261Z" fill="#2A2941"/>
<path fill-rule="evenodd" clip-rule="evenodd" d="M30.8696 12.6956C30.8696 12.6956 24.1381 15.5443 23.2279 16.2196C22.5082 16.9159 21.8731 17.6967 21.3439 18.5407C20.7512 19.3637 20.1374 20.2289 19.6293 21.0097C18.6344 22.4657 17.83 23.4153 18.7614 23.6685C19.1425 23.774 20.4972 22.5712 21.852 21.284C23.3761 19.8491 24.9002 18.4563 24.9002 18.4563C24.498 19.0472 25.5352 20.3977 26.5301 20.2289C27.2075 20.1234 28.4776 19.3848 29.5149 19.1949C30.5521 19.005 31.8645 20.0601 33.6003 18.8573L30.8696 12.6956Z" fill="#FF9518"/>
<path fill-rule="evenodd" clip-rule="evenodd" d="M24.3922 20.2921C24.6674 20.6298 25.0061 20.883 25.4083 21.0518C25.8104 21.2206 26.2338 21.2839 26.6572 21.2628C27.3346 21.1573 28.647 20.4187 29.6842 20.1655C30.1923 20.1444 30.7003 20.2077 31.1872 20.3554C31.7164 20.4398 32.2456 20.4187 32.7536 20.3132C33.2616 20.1866 33.7485 19.9756 34.1719 19.6591L34.8493 19.1948L31.4412 11.345L30.5098 11.7459C30.5098 11.7459 23.5666 14.7002 22.6141 15.3754C21.8097 16.1351 21.0899 17.0002 20.4972 17.9287C19.9045 18.7728 19.2907 19.638 18.7614 20.4187C18.1899 21.1362 17.7242 21.917 17.3643 22.7399C17.2373 23.0987 17.2797 23.5207 17.4702 23.8794C17.576 24.0482 17.7242 24.2171 17.8724 24.3437C18.0417 24.4703 18.2322 24.5547 18.4228 24.5969C18.7826 24.6813 19.1848 24.6391 19.5235 24.4492C20.6031 23.7317 21.598 22.8876 22.5082 21.9803L24.371 20.271L24.3922 20.2921ZM30.9331 12.6744C30.9331 12.6744 24.1382 15.5442 23.2068 16.2195C22.487 16.9158 21.852 17.6966 21.3228 18.5407C20.7301 19.3636 20.1162 20.2288 19.6082 21.0096C18.6133 22.4656 17.8089 23.4152 18.7403 23.6684C19.1213 23.7739 20.4761 22.5711 21.8308 21.2839C23.3549 19.849 24.879 18.4774 24.879 18.4774C24.4769 19.0682 25.5141 20.4187 26.509 20.2499C27.1864 20.1444 28.4565 19.4058 29.4937 19.2159C30.531 19.026 31.8434 20.0811 33.5792 18.8783L30.8273 12.7166L30.9331 12.6744Z" fill="#2A2941"/>
<path fill-rule="evenodd" clip-rule="evenodd" d="M24.3923 20.0389C24.6463 19.7012 24.9427 19.4058 25.2814 19.1526C26.2128 18.6462 27.8216 18.0553 28.3931 17.6755C28.7953 17.3167 29.1763 16.9158 29.4939 16.4727C29.5362 16.3883 29.5785 16.3039 29.5574 16.2195C29.5362 16.135 29.4939 16.0506 29.4303 15.9873C29.388 15.9662 29.3457 15.9451 29.3033 15.924C29.261 15.9029 29.2187 15.9029 29.1552 15.924C29.1128 15.924 29.0705 15.9451 29.0282 15.9662C28.9858 15.9873 28.9435 16.0295 28.9223 16.0717C28.6471 16.4516 28.3508 16.7892 27.9909 17.0846C27.4194 17.4645 25.8529 18.0131 24.9427 18.5406C24.5405 18.8361 24.1595 19.1737 23.842 19.5746C23.7784 19.6379 23.7361 19.7012 23.6938 19.7857C23.6726 19.8279 23.6726 19.8701 23.6726 19.9123C23.6726 19.9545 23.6726 19.9967 23.6938 20.0389C23.7149 20.0811 23.7361 20.1233 23.7573 20.1655C23.7996 20.2077 23.8208 20.2288 23.8631 20.2499C23.9478 20.271 24.0113 20.271 24.096 20.2499C24.1806 20.2288 24.2441 20.1866 24.2865 20.1233C24.2865 20.1022 24.2865 20.0811 24.2865 20.06H24.3923V20.0389Z" fill="#2A2941"/>
<path fill-rule="evenodd" clip-rule="evenodd" d="M33.1982 10.6697L31.1873 11.556L34.5318 19.3003L36.564 18.4351L33.1982 10.6697Z" fill="#00ADB5"/>
<path fill-rule="evenodd" clip-rule="evenodd" d="M37.5164 18.815L33.5792 9.74121L30.2981 11.1972L34.1507 20.2288L37.5164 18.815ZM33.1346 10.6697L31.1237 11.556L34.4682 19.3003L36.5004 18.4351L33.1346 10.6697Z" fill="#2A2941"/>
<path fill-rule="evenodd" clip-rule="evenodd" d="M24.371 38.7771C24.371 38.7771 31.1449 35.9284 32.0763 35.2531C32.796 34.5779 33.431 33.7971 33.9602 32.953C34.5529 32.1301 35.1668 31.2649 35.6748 30.4841C36.6698 29.0281 37.4741 28.0996 36.5427 27.8253C36.1617 27.7198 34.807 28.9226 33.4522 30.2098L30.404 33.0375C30.8062 32.4255 29.7689 31.0961 28.774 31.2438C28.0966 31.3493 26.8266 32.0879 25.7893 32.3411C24.7521 32.5943 23.4396 31.4759 21.7039 32.6787L24.3922 38.8404V38.7771H24.371Z" fill="#00ADB5"/>
<path fill-rule="evenodd" clip-rule="evenodd" d="M30.8697 31.2018C30.5945 30.8642 30.2558 30.6109 29.8536 30.4421C29.4514 30.2733 29.028 30.21 28.6047 30.2522C27.9273 30.3577 26.6149 31.0963 25.5776 31.3495C25.0696 31.3706 24.5616 31.3073 24.0747 31.1596C23.5667 31.0752 23.0163 31.0752 22.5082 31.2018C22.0002 31.3284 21.5133 31.5394 21.09 31.856L20.4126 32.3413L23.8207 40.1912L24.7521 39.7902C24.7521 39.7902 31.6952 36.836 32.6478 36.1607C33.4734 35.401 34.1719 34.5359 34.7646 33.6074C35.3573 32.7633 35.9712 31.8982 36.5004 31.1174C37.0719 30.3999 37.5376 29.6192 37.8975 28.7751C37.961 28.5852 37.9822 28.3742 37.961 28.1631C37.9398 27.9521 37.8763 27.7622 37.7705 27.5934C37.6647 27.4246 37.5376 27.2558 37.3683 27.1503C37.199 27.0236 37.0084 26.9392 36.8179 26.897C36.4369 26.8126 36.0559 26.8759 35.7172 27.0658C34.6376 27.7833 33.6427 28.6274 32.7325 29.5348L30.8697 31.2018ZM24.3075 38.8195C24.3075 38.8195 31.0814 35.9708 32.0128 35.2955C32.7536 34.5992 33.4099 33.8184 33.9391 32.9532C34.5318 32.1303 35.1456 31.2651 35.6537 30.4843C36.6486 29.0283 37.453 28.0998 36.5216 27.8255C36.1405 27.72 34.7858 28.9228 33.431 30.21L30.404 33.0377C30.8062 32.4257 29.7689 31.0963 28.774 31.244C28.0966 31.3495 26.8266 32.0881 25.7893 32.3413C24.7521 32.5945 23.4396 31.4761 21.7039 32.6789L24.3922 38.8406L24.3075 38.8195Z" fill="#2A2941"/>
<path fill-rule="evenodd" clip-rule="evenodd" d="M30.8696 31.455C30.6156 31.7715 30.3193 32.067 29.9806 32.3413C29.0492 32.8477 27.4404 33.4386 26.8688 33.8184C26.4667 34.1771 26.0856 34.5781 25.7681 35.0212C25.7469 35.0634 25.7258 35.1056 25.7046 35.1478C25.6834 35.19 25.6834 35.2322 25.7046 35.2744C25.7046 35.3166 25.7258 35.3588 25.7469 35.401C25.7681 35.4432 25.8104 35.4643 25.8316 35.5066C25.9163 35.5699 26.0009 35.591 26.1068 35.5699C26.1915 35.5488 26.2761 35.5066 26.3396 35.4221C26.5937 35.0423 26.9112 34.7047 27.271 34.4093C27.8426 34.0083 29.4514 33.4597 30.3193 32.9532C30.7215 32.6578 31.0813 32.2991 31.42 31.9193C31.4835 31.8559 31.5258 31.7715 31.5682 31.7082C31.5893 31.666 31.5893 31.6238 31.5893 31.5816C31.5893 31.5394 31.5893 31.4972 31.5682 31.455C31.547 31.4128 31.5258 31.3706 31.5047 31.3284C31.4623 31.2862 31.42 31.2651 31.3777 31.2651C31.3142 31.244 31.2295 31.244 31.1448 31.2651C31.0601 31.2862 30.9966 31.3284 30.9543 31.3917V31.455H30.8696V31.455Z" fill="#2A2941"/>
<path fill-rule="evenodd" clip-rule="evenodd" d="M22.0637 40.8242L24.0747 39.938L20.7301 32.1936L18.698 33.0588L22.0637 40.8242Z" fill="#FF9518"/>
<path fill-rule="evenodd" clip-rule="evenodd" d="M17.7666 32.6788L21.7039 41.7526L24.9849 40.2966L21.0688 31.2439L17.7666 32.6788ZM22.0637 40.8241L24.0747 39.9378L20.7301 32.1935L18.698 33.0586L22.0637 40.8241Z" fill="#2A2941"/>
</svg>
