<svg width="124" height="112" viewBox="0 0 124 112" fill="none" xmlns="http://www.w3.org/2000/svg">
<path fill-rule="evenodd" clip-rule="evenodd" d="M47.1131 97.6253C31.4758 93.3945 6.97155 48.0583 16.3152 24.8102C22.8914 8.45026 40.7617 1.99509 53.382 11.593C60.1682 16.7547 62.0964 25.987 64.2698 33.8897C70.9383 27.7561 79.2743 19.5813 88.6243 18.9743C105.486 17.8794 116.576 33.6191 113.266 52.2174C109.034 75.9917 61.7043 101.574 47.1131 97.6253Z" fill="white" stroke="#E11D48" stroke-width="6.66" stroke-miterlimit="1.5" stroke-linecap="round" stroke-linejoin="round"/>
<path d="M104.362 23.9316C106.284 23.0214 108.221 22.1178 110.227 21.362" stroke="#E11D48" stroke-width="6.66" stroke-miterlimit="1.5" stroke-linecap="round" stroke-linejoin="round"/>
<path d="M59.0838 19.0464C61.4942 18.0676 63.8143 16.8827 66.1735 15.7697" stroke="#E11D48" stroke-width="6.66" stroke-miterlimit="1.5" stroke-linecap="round" stroke-linejoin="round"/>
<path d="M50.9784 10.6626C53.3878 9.68466 55.7082 8.49987 58.068 7.38592" stroke="#E11D48" stroke-width="6.66" stroke-miterlimit="1.5" stroke-linecap="round" stroke-linejoin="round"/>
<path d="M113.555 39.8531C115.964 38.8741 118.284 37.6903 120.644 36.5764" stroke="#E11D48" stroke-width="6.66" stroke-miterlimit="1.5" stroke-linecap="round" stroke-linejoin="round"/>
<path d="M97.9247 75.0053C100.547 74.4567 103.122 73.6622 105.721 72.9533" stroke="#E11D48" stroke-width="6.66" stroke-miterlimit="1.5" stroke-linecap="round" stroke-linejoin="round"/>
<path d="M77.5524 89.2169C80.1522 88.5124 94.9681 85.0647 97.5273 84.2164" stroke="#E11D48" stroke-width="6.66" stroke-miterlimit="1.5" stroke-linecap="round" stroke-linejoin="round"/>
<path d="M57.1794 103.429C59.7418 102.856 74.3799 100.094 76.8955 99.3941" stroke="#E11D48" stroke-width="6.66" stroke-miterlimit="1.5" stroke-linecap="round" stroke-linejoin="round"/>
</svg>
