<svg width="131" height="86" viewBox="0 0 131 86" fill="none" xmlns="http://www.w3.org/2000/svg">
<path fill-rule="evenodd" clip-rule="evenodd" d="M122.197 3.1371C130.313 16.3874 108.025 48.5005 87.3348 53.3534C84.265 54.0707 84.265 53.9017 87.461 50.146C97.6378 38.0772 102.558 26.5994 99.7825 21.409C96.2921 14.9526 86.662 15.1215 80.3962 21.7045C70.0512 32.5917 67.2337 45.3776 73.5836 52.4669L75.0976 54.1549L72.0277 56.9823C64.1218 64.2404 52.6414 70.2748 46.5438 70.2748H45.156C54.8702 58.628 72.28 36.2204 58.739 29.3843C42.0021 20.9445 21.1019 55.2942 34.5587 69.0509L36.4511 70.9923C36.4091 71.0345 14.2053 89.6017 7.35069 79.9805C3.31363 74.3259 5.50033 61.2441 12.1447 50.9055L13.4483 48.8801C13.7847 48.3315 13.6586 47.6564 13.154 47.2766C8.23381 43.8163 -1.52243 63.5652 0.201734 73.4397C2.8931 88.9266 20.8917 90.3193 38.3856 76.3516L41.7077 73.7352L44.0206 74.1572C53.8189 75.9717 67.444 70.4438 78.0413 60.3161C81.1111 57.3622 81.2373 57.3199 82.6671 57.6997C104.913 63.7341 141.288 20.3962 128.252 3.26361C126.107 0.520707 118.79 -2.39091 122.197 3.1371ZM94.0633 21.831C94.61 27.4012 89.8159 36.7692 81.3213 46.9391C78.0412 50.8636 77.873 50.9058 77.1581 47.8675C75.2657 39.892 84.0127 23.8988 91.8345 21.0715C93.9371 20.3119 93.8951 20.3118 94.0633 21.831ZM57.3934 32.9711C59.7483 39.1321 50.3705 57.6154 40.0256 67.2789L38.9743 68.2494L37.7548 65.8019C34.9793 60.1051 36.1988 51.2853 40.7826 44.3647C46.2074 36.136 56.0477 29.3843 57.3934 32.9711Z" fill="#00ADB5"/>
</svg>
